<?xml version="1.0" encoding="utf-8"?>
<!-- Generator: Adobe Illustrator 22.0.1, SVG Export Plug-In . SVG Version: 6.00 Build 0)  -->
<svg version="1.1" id="Calque_1" xmlns="http://www.w3.org/2000/svg" xmlns:xlink="http://www.w3.org/1999/xlink" x="0px" y="0px"
	 viewBox="0 0 1280 1024" style="enable-background:new 0 0 1280 1024;" xml:space="preserve">
<style type="text/css">
	.st0{fill:#222222;}
	.st1{fill:#cecdcd;}
</style>
<g id="Calque_2_1_">
	<path class="st0" d="M313.8,0.2H43.4c0,0-26.9,39.2-26.4,82.6c0.5,43.4,344.7,741.9,344.7,741.9c7.2,5.6,17.5,12.9,30.8,20.3
		c11.7,6.5,33.4,17.9,62.8,22.8c10.2,1.7,22.8,1.9,48,2c19.1,0.2,34.9,0,46-0.3c14-0.3,28.4-0.7,43.2-0.5
		c14.6,0.2,26.6,0.5,26.6,0.5l40.5-5.1l31.5-10.7l22.1-11.9l15.8-21.3l8.5-22.6l6.5-24.3l5.1-39.2v-11.6l6.5-14.5L838,869.1h177.7
		V1024l258.3-284.8L1016,453.9c-0.3,54.1-0.5,108.4-0.9,162.6c-41.4-0.2-82.6-0.3-123.9-0.5c-103-205.3-206-410.6-309-615.9
		c-59.4,0.2-118.8,0.3-178.4,0.5c16.7,34.2,33.5,68.4,50.2,102.7c-6.8-6.5-13.6-12.8-20.4-19.2c-8.2-9-17.5-18.2-28.3-27.4
		C373.4,28.6,340.5,11.1,313.8,0.2z"/>
</g>
<g id="Calque_3">
	<polygon class="st1" points="222.7,164.5 487.8,164.5 710.8,617.3 435,617.3 	"/>
</g>
</svg>
